<mxfile host="app.diagrams.net" modified="2024-02-14T11:52:13.640Z" agent="Mozilla/5.0 (Windows NT 10.0; Win64; x64) AppleWebKit/537.36 (KHTML, like Gecko) Chrome/121.0.0.0 Safari/537.36 Edg/121.0.0.0" etag="CrG6jd4x_Slyy2zmUuay" version="23.1.4" type="device">
  <diagram name="Страница 2" id="Hdwzdg0EYk8kN575uR0B">
    <mxGraphModel dx="1386" dy="793" grid="1" gridSize="10" guides="1" tooltips="1" connect="1" arrows="1" fold="1" page="1" pageScale="1" pageWidth="827" pageHeight="1169" math="0" shadow="0">
      <root>
        <mxCell id="0" />
        <mxCell id="1" parent="0" />
        <mxCell id="inguExNLCSl-GKTIFT8z-8" value="" style="whiteSpace=wrap;html=1;aspect=fixed;" parent="1" vertex="1">
          <mxGeometry x="40" y="210" width="1030" height="1030" as="geometry" />
        </mxCell>
        <mxCell id="inguExNLCSl-GKTIFT8z-10" style="edgeStyle=orthogonalEdgeStyle;rounded=0;orthogonalLoop=1;jettySize=auto;html=1;exitX=0.5;exitY=0.5;exitDx=0;exitDy=0;exitPerimeter=0;entryX=0;entryY=0.5;entryDx=0;entryDy=0;" parent="1" source="inguExNLCSl-GKTIFT8z-1" target="inguExNLCSl-GKTIFT8z-6" edge="1">
          <mxGeometry relative="1" as="geometry" />
        </mxCell>
        <mxCell id="bSZanLa016dovM38rX2T-6" style="edgeStyle=orthogonalEdgeStyle;rounded=0;orthogonalLoop=1;jettySize=auto;html=1;exitX=0.5;exitY=0.5;exitDx=0;exitDy=0;exitPerimeter=0;entryX=0;entryY=1;entryDx=0;entryDy=0;" parent="1" source="inguExNLCSl-GKTIFT8z-1" target="inguExNLCSl-GKTIFT8z-5" edge="1">
          <mxGeometry relative="1" as="geometry">
            <mxPoint x="510" y="380" as="targetPoint" />
            <Array as="points">
              <mxPoint x="470" y="595" />
              <mxPoint x="470" y="422" />
            </Array>
          </mxGeometry>
        </mxCell>
        <mxCell id="inguExNLCSl-GKTIFT8z-1" value="Преподаватель" style="shape=umlActor;verticalLabelPosition=bottom;verticalAlign=top;html=1;" parent="1" vertex="1">
          <mxGeometry x="340" y="540" width="60" height="110" as="geometry" />
        </mxCell>
        <mxCell id="inguExNLCSl-GKTIFT8z-11" style="edgeStyle=orthogonalEdgeStyle;rounded=0;orthogonalLoop=1;jettySize=auto;html=1;exitX=0.5;exitY=0.5;exitDx=0;exitDy=0;exitPerimeter=0;entryX=1;entryY=0.5;entryDx=0;entryDy=0;" parent="1" source="inguExNLCSl-GKTIFT8z-2" target="inguExNLCSl-GKTIFT8z-7" edge="1">
          <mxGeometry relative="1" as="geometry">
            <Array as="points">
              <mxPoint x="790" y="595" />
              <mxPoint x="790" y="770" />
            </Array>
          </mxGeometry>
        </mxCell>
        <mxCell id="bSZanLa016dovM38rX2T-7" style="edgeStyle=orthogonalEdgeStyle;rounded=0;orthogonalLoop=1;jettySize=auto;html=1;exitX=0.5;exitY=0.5;exitDx=0;exitDy=0;entryX=1;entryY=0.5;entryDx=0;entryDy=0;exitPerimeter=0;" parent="1" source="inguExNLCSl-GKTIFT8z-2" target="inguExNLCSl-GKTIFT8z-6" edge="1">
          <mxGeometry relative="1" as="geometry" />
        </mxCell>
        <mxCell id="bSZanLa016dovM38rX2T-8" style="edgeStyle=orthogonalEdgeStyle;rounded=0;orthogonalLoop=1;jettySize=auto;html=1;exitX=0.5;exitY=0.5;exitDx=0;exitDy=0;exitPerimeter=0;entryX=1;entryY=0.5;entryDx=0;entryDy=0;" parent="1" source="inguExNLCSl-GKTIFT8z-2" target="inguExNLCSl-GKTIFT8z-5" edge="1">
          <mxGeometry relative="1" as="geometry">
            <Array as="points">
              <mxPoint x="790" y="595" />
              <mxPoint x="790" y="380" />
            </Array>
          </mxGeometry>
        </mxCell>
        <mxCell id="inguExNLCSl-GKTIFT8z-2" value="Администратор/программист" style="shape=umlActor;verticalLabelPosition=bottom;verticalAlign=top;html=1;" parent="1" vertex="1">
          <mxGeometry x="860" y="540" width="60" height="110" as="geometry" />
        </mxCell>
        <mxCell id="inguExNLCSl-GKTIFT8z-5" value="Просмотр данных БД (Результаты форм/запросов/отчётов)" style="ellipse;whiteSpace=wrap;html=1;" parent="1" vertex="1">
          <mxGeometry x="510" y="320" width="190" height="120" as="geometry" />
        </mxCell>
        <mxCell id="inguExNLCSl-GKTIFT8z-6" value="Изменение данных БД(Изменение/внесение данных таблиц/форм/отчётов)" style="ellipse;whiteSpace=wrap;html=1;" parent="1" vertex="1">
          <mxGeometry x="510" y="535" width="190" height="120" as="geometry" />
        </mxCell>
        <mxCell id="inguExNLCSl-GKTIFT8z-7" value="Изменение структуры БД (создание/удаление/изменение таблиц, форм, запросов и т.д)" style="ellipse;whiteSpace=wrap;html=1;" parent="1" vertex="1">
          <mxGeometry x="510" y="710" width="190" height="120" as="geometry" />
        </mxCell>
      </root>
    </mxGraphModel>
  </diagram>
</mxfile>
